<svg xmlns="http://www.w3.org/2000/svg" xmlns:xlink="http://www.w3.org/1999/xlink" viewBox="0 0 59 66" fill="#fff" fill-rule="evenodd" stroke="#000" stroke-linecap="round" stroke-linejoin="round"><use xlink:href="#E" x=".5" y=".5"/><defs><linearGradient id="A" x1="91.41%" y1="4.98%" x2="-38.35%" y2="71.91%"><stop offset="0%" stop-color="#00a0ff"/><stop offset=".7%" stop-color="#00a1ff"/><stop offset="26%" stop-color="#00beff"/><stop offset="51.2%" stop-color="#00d2ff"/><stop offset="76%" stop-color="#00dfff"/><stop offset="100%" stop-color="#00e3ff"/></linearGradient><linearGradient id="B" x1="107.44%" y1="50.09%" x2="-130.45%" y2="50.09%"><stop offset="0%" stop-color="#ffe000"/><stop offset="40.9%" stop-color="#ffbd00"/><stop offset="77.5%" stop-color="orange"/><stop offset="100%" stop-color="#ff9c00"/></linearGradient><linearGradient id="C" x1="86.23%" y1="17.93%" x2="-50.14%" y2="194.84%"><stop offset="0%" stop-color="#ff3a44"/><stop offset="100%" stop-color="#c31162"/></linearGradient><linearGradient id="D" x1="-18.81%" y1="-54.27%" x2="42.08%" y2="24.77%"><stop offset="0%" stop-color="#32a071"/><stop offset="6.9%" stop-color="#2da771"/><stop offset="47.6%" stop-color="#15cf74"/><stop offset="80.1%" stop-color="#06e775"/><stop offset="100%" stop-color="#00f076"/></linearGradient></defs><symbol id="E" overflow="visible"><g stroke="none" fill-rule="nonzero"><path d="M1.164 1.013C.436 1.777 0 2.977 0 4.504v55.011c0 1.527.436 2.727 1.164 3.49l.182.182 30.832-30.832v-.727L1.345.795z" fill="url(#A)"/><path d="M42.431 42.643l-10.253-10.29v-.727l10.29-10.29.218.145 12.18 6.908c3.49 1.963 3.49 5.199 0 7.199l-12.18 6.908z" fill="url(#B)"/><path d="M42.685 42.499L32.177 31.991 1.163 63.005c1.127 1.2 3.054 1.382 5.163.145l36.359-20.652" fill="url(#C)"/><path d="M42.685 21.519L6.326.868c-2.145-1.2-4.036-1.054-5.163.145l31.014 31.014z" fill="url(#D)"/><g fill="#000"><path d="M42.43 42.28L6.326 62.786c-2.036 1.163-3.818 1.091-4.981.036l-.182.182.182.182c1.164 1.054 2.981 1.127 4.981-.036l36.359-20.652z" opacity=".2"/><path d="M1.164 62.642C.436 61.878 0 60.678 0 59.151v.364c0 1.527.436 2.727 1.164 3.49l.182-.182zm53.666-27.415l-12.398 7.054.218.218 12.18-6.908c1.745-.982 2.618-2.291 2.618-3.599-.145 1.2-1.018 2.327-2.618 3.236z" opacity=".12"/></g><path d="M6.326 1.195l48.503 27.56c1.563.909 2.472 2.036 2.618 3.236 0-1.309-.873-2.618-2.618-3.6L6.326.831C2.836-1.132 0 .504 0 4.467v.364C0 .868 2.836-.769 6.326 1.195z" opacity=".25"/></g></symbol></svg>